<?xml version="1.0" encoding="UTF-8" standalone="no"?>
<!DOCTYPE svg PUBLIC "-//W3C//DTD SVG 1.1//EN" "http://www.w3.org/Graphics/SVG/1.1/DTD/svg11.dtd">
<svg width="100%" height="100%" viewBox="0 0 1059 488" version="1.1" xmlns="http://www.w3.org/2000/svg" xmlns:xlink="http://www.w3.org/1999/xlink" xml:space="preserve" xmlns:serif="http://www.serif.com/" style="fill-rule:evenodd;clip-rule:evenodd;stroke-linejoin:round;stroke-miterlimit:2;">
    <g transform="matrix(1,0,0,1,-18549.7,-1159.48)">
        <g id="Artboard3" transform="matrix(1,0,0,0.460266,1102.59,1159.48)">
            <rect x="17447.1" y="0" width="1058.99" height="1058.99" style="fill:none;"/>
            <g transform="matrix(2.0259,0,0,4.40158,-22679,-1861.24)">
                <g transform="matrix(0.514461,0,0,0.4386,10809.1,-192.371)">
                    <path d="M18316.5,1688.08C18316.5,1678.12 18309.6,1670.02 18301.1,1670.02L17693.4,1670.02C17684.9,1670.02 17678,1678.12 17678,1688.08L17678,1724.2C17678,1734.16 17684.9,1742.26 17693.4,1742.26L18301.1,1742.26C18309.6,1742.26 18316.5,1734.16 18316.5,1724.2L18316.5,1688.08Z" style="fill:rgb(71,71,71);"/>
                </g>
                <g transform="matrix(0.261784,0,0,0.261784,15356.6,77.3394)">
                    <path d="M18316.5,1688.08C18316.5,1678.12 18308.4,1670.02 18298.5,1670.02L17696.1,1670.02C17686.1,1670.02 17678,1678.12 17678,1688.08L17678,1724.2C17678,1734.16 17686.1,1742.26 17696.1,1742.26L18298.5,1742.26C18308.4,1742.26 18316.5,1734.16 18316.5,1724.2L18316.5,1688.08Z" style="fill:rgb(71,71,71);"/>
                </g>
                <g transform="matrix(0.114147,0,0,0.261784,18013.6,86.7939)">
                    <path d="M18316.5,1688.08C18316.5,1678.12 18298,1670.02 18275.1,1670.02L17719.4,1670.02C17696.6,1670.02 17678,1678.12 17678,1688.08L17678,1724.2C17678,1734.16 17696.6,1742.26 17719.4,1742.26L18275.1,1742.26C18298,1742.26 18316.5,1734.16 18316.5,1724.2L18316.5,1688.08Z" style="fill:rgb(71,71,71);"/>
                </g>
                <g transform="matrix(0.514461,0,0,0.514461,10811.1,-320.232)">
                    <path d="M17768.6,1696.03C17768.6,1692.13 17765.4,1688.97 17761.6,1688.97L17706.4,1688.97C17702.5,1688.97 17699.4,1692.13 17699.4,1696.03L17699.4,1710.15C17699.4,1714.05 17702.5,1717.22 17706.4,1717.22L17761.6,1717.22C17765.4,1717.22 17768.6,1714.05 17768.6,1710.15L17768.6,1696.03Z" style="fill:rgb(224,212,40);"/>
                </g>
                <g transform="matrix(0.514461,0,0,0.514461,11078,-320.232)">
                    <path d="M17768.6,1696.03C17768.6,1692.13 17765.4,1688.97 17761.6,1688.97L17706.4,1688.97C17702.5,1688.97 17699.4,1692.13 17699.4,1696.03L17699.4,1710.15C17699.4,1714.05 17702.5,1717.22 17706.4,1717.22L17761.6,1717.22C17765.4,1717.22 17768.6,1714.05 17768.6,1710.15L17768.6,1696.03Z" style="fill:rgb(224,212,40);"/>
                </g>
                <g transform="matrix(3.06918,0,0,0.514461,-34360.8,-320.232)">
                    <path d="M17768.6,1696.03C17768.6,1692.13 17768.1,1688.97 17767.4,1688.97L17700.6,1688.97C17699.9,1688.97 17699.4,1692.13 17699.4,1696.03L17699.4,1710.15C17699.4,1714.05 17699.9,1717.22 17700.6,1717.22L17767.4,1717.22C17768.1,1717.22 17768.6,1714.05 17768.6,1710.15L17768.6,1696.03Z" style="fill:rgb(224,55,40);"/>
                </g>
            </g>
        </g>
    </g>
</svg>
