<?xml version="1.0" encoding="UTF-8" standalone="no"?>
<!DOCTYPE svg PUBLIC "-//W3C//DTD SVG 1.1//EN" "http://www.w3.org/Graphics/SVG/1.1/DTD/svg11.dtd">
<svg width="100%" height="100%" viewBox="0 0 4413 2034" version="1.1" xmlns="http://www.w3.org/2000/svg" xmlns:xlink="http://www.w3.org/1999/xlink" xml:space="preserve" xmlns:serif="http://www.serif.com/" style="fill-rule:evenodd;clip-rule:evenodd;stroke-linecap:round;stroke-linejoin:round;stroke-miterlimit:1.5;">
    <g transform="matrix(1,0,0,1,-4698.96,-3123.76)">
        <g id="Artboard4" transform="matrix(4.16667,0,0,4.16667,4698.96,3123.76)">
            <rect x="0" y="0" width="1059" height="488" style="fill:none;"/>
            <g transform="matrix(0.576485,0,0,0.576485,-3532.73,-2158.15)">
                <rect x="7607.53" y="3994.92" width="48.003" height="145.504" style="fill:rgb(52,52,52);"/>
            </g>
            <g transform="matrix(0.576485,0,0,0.39943,-3532.73,-1410.12)">
                <rect x="6925.79" y="3720.71" width="189.282" height="504.184" style="fill:rgb(52,52,52);"/>
            </g>
            <g transform="matrix(0.576485,0,0,0.080436,-3532.73,-269.808)">
                <rect x="6925.79" y="3720.71" width="189.282" height="504.184" style="fill:rgb(52,52,52);"/>
            </g>
            <g transform="matrix(0.576485,0,0,0.576485,-3532.68,-2148.85)">
                <rect x="6581.4" y="4054.55" width="1002.22" height="13.126" style="fill:rgb(52,52,52);"/>
            </g>
            <g transform="matrix(0.576485,0,0,0.576485,-3532.73,-2158.15)">
                <rect x="6660.4" y="3968.04" width="909.338" height="53.771" style="fill:rgb(52,52,52);"/>
            </g>
            <g transform="matrix(0.576485,0,0,0.576485,-3532.73,-2058.77)">
                <rect x="6660.4" y="3968.04" width="909.338" height="53.771" style="fill:rgb(52,52,52);"/>
            </g>
            <g transform="matrix(0.718331,0,0,0.576485,-4536.54,-2160.9)">
                <rect x="6981.01" y="3972.8" width="101.079" height="315.948" style="fill:rgb(52,52,52);stroke:white;stroke-width:4.61px;"/>
            </g>
            <g transform="matrix(0.576485,0,0,0.576485,-3532.69,-2160.37)">
                <path d="M6606.64,4021.81L6448.51,4021.81C6445.59,4021.81 6442.79,4022.97 6440.72,4025.03C6438.65,4027.1 6437.49,4029.9 6437.49,4032.83C6437.49,4055.43 6437.49,4106.8 6437.49,4129.4C6437.49,4132.33 6438.65,4135.13 6440.72,4137.2C6442.79,4139.26 6445.59,4140.43 6448.51,4140.43C6486.05,4140.43 6606.64,4140.43 6606.64,4140.43L6606.64,4021.81Z" style="fill:rgb(52,52,52);"/>
            </g>
            <g transform="matrix(0.576485,0,0,0.576485,-3532.73,-2158.15)">
                <path d="M7541.55,4388.93C7541.55,4385.69 7540.26,4382.57 7537.97,4380.28C7535.67,4377.99 7532.56,4376.7 7529.31,4376.7L6700.83,4376.7C6697.59,4376.7 6694.48,4377.99 6692.18,4380.28C6689.89,4382.57 6688.6,4385.69 6688.6,4388.93L6688.6,4526.79C6688.6,4530.04 6689.89,4533.15 6692.18,4535.44C6694.48,4537.74 6697.59,4539.03 6700.83,4539.03L7529.31,4539.03C7532.56,4539.03 7535.67,4537.74 7537.97,4535.44C7540.26,4533.15 7541.55,4530.04 7541.55,4526.79L7541.55,4388.93Z" style="fill:rgb(52,52,52);"/>
            </g>
            <g transform="matrix(0.576485,0,0,0.576485,-3519.47,-2166.61)">
                <circle cx="7092.07" cy="4472.54" r="46.51" style="fill:rgb(52,52,52);stroke:white;stroke-width:5.2px;"/>
            </g>
            <g transform="matrix(0.576485,0,0,0.576485,-3532.73,-2158.15)">
                <rect x="6641.58" y="3951.56" width="18.824" height="546.661" style="fill:rgb(52,52,52);"/>
            </g>
            <g transform="matrix(0.576485,0,0,0.576485,-2997.66,-2158.15)">
                <rect x="6641.58" y="3951.56" width="18.824" height="546.661" style="fill:rgb(52,52,52);"/>
            </g>
            <g transform="matrix(0.576485,0,0,0.576485,-3532.59,-2160.58)">
                <rect x="6586.34" y="4022.17" width="63.636" height="13.088" style="fill:rgb(52,52,52);"/>
            </g>
            <g transform="matrix(0.576485,0,0,0.576485,-3532.59,-2099.74)">
                <rect x="6586.34" y="4022.17" width="63.636" height="13.088" style="fill:rgb(52,52,52);"/>
            </g>
            <g transform="matrix(0.576485,0,0,-0.576485,-3525.92,2828.21)">
                <path d="M7008.63,4306.14L7020.43,4348.85L6996.82,4348.85L7008.63,4306.14Z" style="fill:rgb(52,52,52);"/>
            </g>
            <g transform="matrix(0.408247,0,0,0.408247,-2289.53,-1446.32)">
                <rect x="6359.94" y="4502.99" width="47.34" height="78.885" style="fill:rgb(52,52,52);"/>
            </g>
            <g transform="matrix(0.408247,0,0,0.408247,-1784.64,-1446.32)">
                <rect x="6359.94" y="4502.99" width="47.34" height="78.885" style="fill:rgb(52,52,52);"/>
            </g>
        </g>
    </g>
</svg>
