<?xml version="1.0" encoding="UTF-8" standalone="no"?>
<!DOCTYPE svg PUBLIC "-//W3C//DTD SVG 1.1//EN" "http://www.w3.org/Graphics/SVG/1.1/DTD/svg11.dtd">
<svg width="100%" height="100%" viewBox="0 0 792 369" version="1.1" xmlns="http://www.w3.org/2000/svg" xmlns:xlink="http://www.w3.org/1999/xlink" xml:space="preserve" xmlns:serif="http://www.serif.com/" style="fill-rule:evenodd;clip-rule:evenodd;stroke-linejoin:round;stroke-miterlimit:2;">
    <g transform="matrix(1,0,0,1,0,-2585)">
        <g id="Artboard2" transform="matrix(1.10872,0,0,0.515711,0,1251.67)">
            <rect x="0" y="2585.42" width="713.666" height="713.666" style="fill:none;"/>
            <g transform="matrix(1,0,0,1,-83.3366,51.9588)">
                <g transform="matrix(0.733968,0,0,1.57795,-274.871,187.609)">
                    <path d="M584.695,1668.43L526.732,1668.43L526.732,1823L681.3,1823L681.3,1552.5L623.337,1552.5L623.337,1745.71L584.695,1745.71L584.695,1668.43Z"/>
                </g>
                <g transform="matrix(0.733968,0,0,1.57795,-139.015,187.609)">
                    <path d="M584.695,1668.43L526.732,1668.43L526.732,1823L681.3,1823L681.3,1668.43L623.337,1668.43L623.337,1745.71L584.695,1745.71L584.695,1668.43Z"/>
                </g>
                <g transform="matrix(0.733968,0,0,1.57795,132.697,187.609)">
                    <path d="M584.695,1668.43L526.732,1668.43L526.732,1823L681.3,1823L681.3,1668.43L623.337,1668.43L623.337,1745.71L584.695,1745.71L584.695,1668.43Z"/>
                </g>
                <g transform="matrix(4.49426e-17,1.57795,-0.733968,9.66213e-17,1993.18,1989.14)">
                    <path d="M584.695,1668.43L526.732,1668.43L526.732,1823L681.3,1823L681.3,1668.43L623.337,1668.43L623.337,1745.71L584.695,1745.71L584.695,1668.43Z"/>
                </g>
                <g transform="matrix(0.733968,0,0,1.57795,-274.871,106.383)">
                    <path d="M1051.5,1990.4L1051.5,1719.9L993.533,1719.9L993.533,1797.19L954.891,1797.19L954.891,1719.9L896.928,1719.9L896.928,1874.47L993.533,1874.47L993.533,1990.4L1051.5,1990.4Z"/>
                </g>
            </g>
        </g>
    </g>
</svg>
