<?xml version="1.0" encoding="UTF-8" standalone="no"?>
<!DOCTYPE svg PUBLIC "-//W3C//DTD SVG 1.1//EN" "http://www.w3.org/Graphics/SVG/1.1/DTD/svg11.dtd">
<svg width="100%" height="100%" viewBox="0 0 1594 1409" version="1.1" xmlns="http://www.w3.org/2000/svg" xmlns:xlink="http://www.w3.org/1999/xlink" xml:space="preserve" xmlns:serif="http://www.serif.com/" style="fill-rule:evenodd;clip-rule:evenodd;stroke-linejoin:round;stroke-miterlimit:2;">
    <g transform="matrix(1,0,0,1,-14072.8,0)">
        <g id="Artboard2" transform="matrix(1.13144,0,0,1,-118.905,0)">
            <rect x="12543" y="0" width="1408.69" height="1408.69" style="fill:white;"/>
            <g transform="matrix(0.39826,0,0,0.450609,8589.91,-202.4)">
                <text x="10241.7px" y="1169.44px" style="font-family:'SpaceMono-Regular', 'Space Mono', monospace;font-size:176.076px;">C.C. × jypip Fox School</text>
            </g>
            <g transform="matrix(0.324905,0,0,0.367612,9341.51,8.39482)">
                <text x="10241.7px" y="1169.44px" style="font-family:'SpaceMono-Regular', 'Space Mono', monospace;font-size:176.076px;">NT$‌1,250</text>
            </g>
            <g transform="matrix(0.324905,0,0,0.367612,9343.11,195.11)">
                <text x="10241.7px" y="1169.44px" style="font-family:'SpaceMono-Regular', 'Space Mono', monospace;font-size:176.076px;">Size:</text>
            </g>
            <g transform="matrix(0.619745,0,0,0.701207,6287.23,-436.993)">
                <rect x="10304.3" y="1601.7" width="392.846" height="94.342"/>
            </g>
            <g transform="matrix(0.619745,0,0,0.701207,6570.51,-436.993)">
                <rect x="10304.3" y="1601.7" width="392.846" height="94.342"/>
            </g>
            <g transform="matrix(0.619745,0,0,0.701207,6853.79,-436.993)">
                <rect x="10304.3" y="1601.7" width="392.846" height="94.342"/>
            </g>
            <g transform="matrix(0.250786,0,0,0.28375,10159.6,404.866)">
                <text x="10241.7px" y="1169.44px" style="font-family:'SpaceMono-Regular', 'Space Mono', monospace;font-size:176.076px;fill:white;">SMALL</text>
            </g>
            <g transform="matrix(0.250786,0,0,0.28375,10428.7,404.866)">
                <text x="10241.7px" y="1169.44px" style="font-family:'SpaceMono-Regular', 'Space Mono', monospace;font-size:176.076px;fill:white;">MEDIUM</text>
            </g>
            <g transform="matrix(0.250786,0,0,0.28375,10725.5,404.866)">
                <text x="10241.7px" y="1169.44px" style="font-family:'SpaceMono-Regular', 'Space Mono', monospace;font-size:176.076px;fill:white;">LARGE</text>
            </g>
            <g transform="matrix(0.883826,0,0,1,103.883,-24.8295)">
                <g transform="matrix(0.826298,0,0,1,2470.08,0)">
                    <text x="14220.2px" y="894.233px" style="font-family:'SpaceMono-Regular', 'Space Mono', monospace;font-size:36.772px;">Now this</text>
                </g>
                <g transform="matrix(0.826298,0,0,1,2470.08,0)">
                    <text x="14220.2px" y="934.941px" style="font-family:'SpaceMono-Regular', 'Space Mono', monospace;font-size:36.772px;">Is hells waiting room</text>
                </g>
                <g transform="matrix(0.826298,0,0,1,2470.08,0)">
                    <text x="14220.2px" y="975.649px" style="font-family:'SpaceMono-Regular', 'Space Mono', monospace;font-size:36.772px;">Dont bring your sexys with you</text>
                </g>
                <g transform="matrix(0.826298,0,0,1,2470.08,0)">
                    <text x="14220.2px" y="1016.36px" style="font-family:'SpaceMono-Regular', 'Space Mono', monospace;font-size:36.772px;">They might get snatched up</text>
                </g>
                <g transform="matrix(0.826298,0,0,1,2470.08,0)">
                    <text x="14220.2px" y="1057.07px" style="font-family:'SpaceMono-Regular', 'Space Mono', monospace;font-size:36.772px;">Litte panty robber nerm</text>
                </g>
                <g transform="matrix(0.826298,0,0,1,2470.08,0)">
                    <text x="14220.2px" y="1097.77px" style="font-family:'SpaceMono-Regular', 'Space Mono', monospace;font-size:36.772px;">100% Cotton Long Sleeve Tee</text>
                </g>
                <g transform="matrix(0.826298,0,0,1,2470.08,0)">
                    <text x="14220.2px" y="1138.48px" style="font-family:'SpaceMono-Regular', 'Space Mono', monospace;font-size:36.772px;">Screen Printed Front, Back, And Sleeve Fireworld Graphics</text>
                </g>
            </g>
        </g>
    </g>
</svg>
