<?xml version="1.0" encoding="UTF-8" standalone="no"?>
<!DOCTYPE svg PUBLIC "-//W3C//DTD SVG 1.1//EN" "http://www.w3.org/Graphics/SVG/1.1/DTD/svg11.dtd">
<svg width="100%" height="100%" viewBox="0 0 1059 1059" version="1.1" xmlns="http://www.w3.org/2000/svg" xmlns:xlink="http://www.w3.org/1999/xlink" xml:space="preserve" xmlns:serif="http://www.serif.com/" style="fill-rule:evenodd;clip-rule:evenodd;stroke-linejoin:round;stroke-miterlimit:2;">
    <g transform="matrix(1,0,0,1,-17447,0)">
        <g id="Artboard3" transform="matrix(1,0,0,1,-0.139395,0)">
            <rect x="17447.1" y="0" width="1058.99" height="1058.99" style="fill:rgb(237,235,235);"/>
            <g transform="matrix(1.30574,0,0,1.30574,4407.94,-1218.15)">
                <path d="M10269.7,1071.72C10265.9,1071.72 10262.6,1070.37 10259.9,1067.67C10257.2,1064.97 10255.8,1061.68 10255.8,1057.81C10255.8,1053.93 10257.2,1050.62 10259.9,1047.86C10262.6,1045.1 10265.9,1043.72 10269.7,1043.72C10273.6,1043.72 10276.9,1045.1 10279.7,1047.86C10282.5,1050.62 10283.8,1053.93 10283.8,1057.81C10283.8,1061.68 10282.5,1064.97 10279.7,1067.67C10276.9,1070.37 10273.6,1071.72 10269.7,1071.72ZM10225.9,1213.46C10220.3,1213.46 10215.6,1211.99 10211.8,1209.06C10208.1,1206.12 10206.2,1201.89 10206.2,1196.38C10206.2,1184.99 10215.8,1176.25 10235.1,1170.14L10253.9,1081.4L10279.3,1081.4L10261.8,1163.1C10267.5,1161.22 10272,1158.4 10275.4,1154.65C10278.8,1150.89 10281.7,1145.32 10284,1137.92L10291.4,1137.92C10288.2,1148.37 10283.9,1156.03 10278.5,1160.9C10273.1,1165.77 10267,1169.09 10260.2,1170.85L10257.6,1183.52C10255.2,1194.91 10251.2,1202.75 10245.4,1207.03C10239.7,1211.32 10233.2,1213.46 10225.9,1213.46ZM10221.9,1199.72C10223.8,1199.72 10225.8,1198.37 10227.7,1195.67C10229.5,1192.97 10231,1189.1 10232.1,1184.05L10233.1,1178.95C10221.6,1183.17 10215.9,1188.16 10215.9,1193.91C10215.9,1195.44 10216.4,1196.79 10217.5,1197.96C10218.5,1199.14 10220,1199.72 10221.9,1199.72Z" style="fill:rgb(0,212,255);fill-rule:nonzero;"/>
                <path d="M10311.5,1213.46C10305.8,1213.46 10301.1,1211.99 10297.4,1209.06C10293.6,1206.12 10291.8,1201.89 10291.8,1196.38C10291.8,1189.8 10294.5,1184.29 10300.1,1179.83C10305.7,1175.37 10312.5,1171.84 10320.6,1169.26L10322.6,1160.63C10319.2,1164.39 10315.7,1166.97 10312.2,1168.38C10308.7,1169.79 10305.1,1170.49 10301.4,1170.49C10295.8,1170.49 10291.3,1168.73 10287.8,1165.21C10284.3,1161.69 10282.6,1156.41 10282.6,1149.37C10282.6,1146.43 10283.1,1142.62 10284,1137.92L10296,1081.4L10321.3,1081.4L10308.7,1141.27C10308.3,1142.67 10308.1,1144.14 10308.1,1145.67C10308.1,1150.83 10309.9,1153.41 10313.4,1153.41C10316.5,1153.41 10319.2,1152.09 10321.5,1149.45C10323.9,1146.81 10325.7,1143.32 10327.1,1138.98L10339.5,1081.4L10364.8,1081.4L10347.6,1162.22C10353.4,1160.93 10359.3,1159.81 10365.2,1158.87L10383,1074.88L10408.3,1074.88L10405.5,1088.09C10411.4,1083.04 10418.2,1080.52 10426.1,1080.52C10432.7,1080.52 10437.9,1082.69 10441.8,1087.03C10445.6,1091.38 10447.6,1098.48 10447.6,1108.34C10447.6,1117.61 10446.2,1126.97 10443.5,1136.42C10440.8,1145.87 10436.3,1153.91 10429.8,1160.55C10423.3,1167.18 10414.8,1170.49 10404.3,1170.49C10398.4,1170.49 10393,1170.32 10388.1,1169.97L10380.1,1207.12L10353.6,1213.46L10362.9,1169.09C10357,1169.32 10351.3,1169.97 10345.8,1171.02L10343.2,1183.52C10340.8,1194.91 10336.8,1202.75 10331,1207.03C10325.3,1211.32 10318.8,1213.46 10311.5,1213.46ZM10391.1,1156.23C10392.8,1156.12 10395.4,1156.06 10398.8,1156.06C10404.4,1156.06 10409.1,1153.36 10412.8,1147.96C10416.5,1142.56 10419.2,1136.13 10420.9,1128.68C10422.6,1121.22 10423.5,1114.27 10423.5,1107.81C10423.5,1098.07 10420.5,1093.2 10414.7,1093.2C10412.5,1093.2 10410.4,1093.96 10408.2,1095.49C10406.1,1097.01 10404.1,1099.12 10402.5,1101.83L10391.1,1156.23ZM10307.4,1199.72C10309.4,1199.72 10311.4,1198.37 10313.2,1195.67C10315.1,1192.97 10316.6,1189.1 10317.6,1184.05L10318.7,1178.95C10307.2,1183.17 10301.4,1188.16 10301.4,1193.91C10301.4,1195.44 10302,1196.79 10303,1197.96C10304.1,1199.14 10305.5,1199.72 10307.4,1199.72Z" style="fill:rgb(0,212,255);fill-rule:nonzero;"/>
                <path d="M10481.4,1071.89C10477.5,1071.89 10474.2,1070.54 10471.5,1067.84C10468.8,1065.14 10467.5,1061.86 10467.5,1057.98C10467.5,1054.11 10468.8,1050.79 10471.5,1048.03C10474.2,1045.28 10477.5,1043.89 10481.4,1043.89C10485.3,1043.89 10488.6,1045.28 10491.3,1048.03C10494.1,1050.79 10495.5,1054.11 10495.5,1057.98C10495.5,1061.86 10494.1,1065.14 10491.3,1067.84C10488.6,1070.54 10485.3,1071.89 10481.4,1071.89ZM10469.4,1170.49C10463.8,1170.49 10459.2,1168.73 10455.8,1165.21C10452.3,1161.69 10450.6,1156.41 10450.6,1149.37C10450.6,1146.43 10451,1142.62 10452,1137.92L10464,1081.4L10489.3,1081.4L10476.6,1141.27C10476.2,1143.03 10475.9,1144.9 10475.9,1146.9C10475.9,1149.25 10476.5,1150.92 10477.6,1151.92C10478.7,1152.92 10480.6,1153.41 10483.1,1153.41C10486.6,1153.41 10489.7,1151.98 10492.7,1149.1C10495.6,1146.23 10497.7,1142.5 10499,1137.92L10506.4,1137.92C10502,1150.6 10496.5,1159.2 10489.7,1163.71C10482.9,1168.24 10476.1,1170.49 10469.4,1170.49Z" style="fill:rgb(0,212,255);fill-rule:nonzero;"/>
                <path d="M10512.4,1074.88L10537.7,1074.88L10534.9,1088.09C10540.8,1083.04 10547.7,1080.52 10555.5,1080.52C10562.1,1080.52 10567.3,1082.69 10571.2,1087.03C10575.1,1091.38 10577,1098.48 10577,1108.34C10577,1117.61 10575.6,1126.97 10572.9,1136.42C10570.2,1145.87 10565.7,1153.91 10559.2,1160.55C10552.8,1167.18 10544.2,1170.49 10533.7,1170.49C10526.2,1170.49 10521.2,1168.38 10518.7,1164.16L10509.6,1207.12L10483,1213.46L10512.4,1074.88ZM10528.2,1155.18C10533.9,1155.18 10538.5,1152.54 10542.2,1147.25C10545.9,1141.97 10548.6,1135.66 10550.3,1128.32C10552,1120.99 10552.9,1114.15 10552.9,1107.81C10552.9,1098.07 10549.9,1093.2 10544.1,1093.2C10542,1093.2 10539.8,1093.96 10537.6,1095.49C10535.5,1097.01 10533.6,1099.12 10531.9,1101.83L10521.5,1151.13C10522.5,1153.83 10524.7,1155.18 10528.2,1155.18Z" style="fill:rgb(0,212,255);fill-rule:nonzero;"/>
            </g>
            <g transform="matrix(1.30574,0,0,1.30574,4407.94,-944.146)">
                <path d="M10269.7,1071.72C10265.9,1071.72 10262.6,1070.37 10259.9,1067.67C10257.2,1064.97 10255.8,1061.68 10255.8,1057.81C10255.8,1053.93 10257.2,1050.62 10259.9,1047.86C10262.6,1045.1 10265.9,1043.72 10269.7,1043.72C10273.6,1043.72 10276.9,1045.1 10279.7,1047.86C10282.5,1050.62 10283.8,1053.93 10283.8,1057.81C10283.8,1061.68 10282.5,1064.97 10279.7,1067.67C10276.9,1070.37 10273.6,1071.72 10269.7,1071.72ZM10225.9,1213.46C10220.3,1213.46 10215.6,1211.99 10211.8,1209.06C10208.1,1206.12 10206.2,1201.89 10206.2,1196.38C10206.2,1184.99 10215.8,1176.25 10235.1,1170.14L10253.9,1081.4L10279.3,1081.4L10261.8,1163.1C10267.5,1161.22 10272,1158.4 10275.4,1154.65C10278.8,1150.89 10281.7,1145.32 10284,1137.92L10291.4,1137.92C10288.2,1148.37 10283.9,1156.03 10278.5,1160.9C10273.1,1165.77 10267,1169.09 10260.2,1170.85L10257.6,1183.52C10255.2,1194.91 10251.2,1202.75 10245.4,1207.03C10239.7,1211.32 10233.2,1213.46 10225.9,1213.46ZM10221.9,1199.72C10223.8,1199.72 10225.8,1198.37 10227.7,1195.67C10229.5,1192.97 10231,1189.1 10232.1,1184.05L10233.1,1178.95C10221.6,1183.17 10215.9,1188.16 10215.9,1193.91C10215.9,1195.44 10216.4,1196.79 10217.5,1197.96C10218.5,1199.14 10220,1199.72 10221.9,1199.72Z" style="fill:rgb(0,110,255);fill-rule:nonzero;"/>
                <path d="M10311.5,1213.46C10305.8,1213.46 10301.1,1211.99 10297.4,1209.06C10293.6,1206.12 10291.8,1201.89 10291.8,1196.38C10291.8,1189.8 10294.5,1184.29 10300.1,1179.83C10305.7,1175.37 10312.5,1171.84 10320.6,1169.26L10322.6,1160.63C10319.2,1164.39 10315.7,1166.97 10312.2,1168.38C10308.7,1169.79 10305.1,1170.49 10301.4,1170.49C10295.8,1170.49 10291.3,1168.73 10287.8,1165.21C10284.3,1161.69 10282.6,1156.41 10282.6,1149.37C10282.6,1146.43 10283.1,1142.62 10284,1137.92L10296,1081.4L10321.3,1081.4L10308.7,1141.27C10308.3,1142.67 10308.1,1144.14 10308.1,1145.67C10308.1,1150.83 10309.9,1153.41 10313.4,1153.41C10316.5,1153.41 10319.2,1152.09 10321.5,1149.45C10323.9,1146.81 10325.7,1143.32 10327.1,1138.98L10339.5,1081.4L10364.8,1081.4L10347.6,1162.22C10353.4,1160.93 10359.3,1159.81 10365.2,1158.87L10383,1074.88L10408.3,1074.88L10405.5,1088.09C10411.4,1083.04 10418.2,1080.52 10426.1,1080.52C10432.7,1080.52 10437.9,1082.69 10441.8,1087.03C10445.6,1091.38 10447.6,1098.48 10447.6,1108.34C10447.6,1117.61 10446.2,1126.97 10443.5,1136.42C10440.8,1145.87 10436.3,1153.91 10429.8,1160.55C10423.3,1167.18 10414.8,1170.49 10404.3,1170.49C10398.4,1170.49 10393,1170.32 10388.1,1169.97L10380.1,1207.12L10353.6,1213.46L10362.9,1169.09C10357,1169.32 10351.3,1169.97 10345.8,1171.02L10343.2,1183.52C10340.8,1194.91 10336.8,1202.75 10331,1207.03C10325.3,1211.32 10318.8,1213.46 10311.5,1213.46ZM10391.1,1156.23C10392.8,1156.12 10395.4,1156.06 10398.8,1156.06C10404.4,1156.06 10409.1,1153.36 10412.8,1147.96C10416.5,1142.56 10419.2,1136.13 10420.9,1128.68C10422.6,1121.22 10423.5,1114.27 10423.5,1107.81C10423.5,1098.07 10420.5,1093.2 10414.7,1093.2C10412.5,1093.2 10410.4,1093.96 10408.2,1095.49C10406.1,1097.01 10404.1,1099.12 10402.5,1101.83L10391.1,1156.23ZM10307.4,1199.72C10309.4,1199.72 10311.4,1198.37 10313.2,1195.67C10315.1,1192.97 10316.6,1189.1 10317.6,1184.05L10318.7,1178.95C10307.2,1183.17 10301.4,1188.16 10301.4,1193.91C10301.4,1195.44 10302,1196.79 10303,1197.96C10304.1,1199.14 10305.5,1199.72 10307.4,1199.72Z" style="fill:rgb(0,110,255);fill-rule:nonzero;"/>
                <path d="M10481.4,1071.89C10477.5,1071.89 10474.2,1070.54 10471.5,1067.84C10468.8,1065.14 10467.5,1061.86 10467.5,1057.98C10467.5,1054.11 10468.8,1050.79 10471.5,1048.03C10474.2,1045.28 10477.5,1043.89 10481.4,1043.89C10485.3,1043.89 10488.6,1045.28 10491.3,1048.03C10494.1,1050.79 10495.5,1054.11 10495.5,1057.98C10495.5,1061.86 10494.1,1065.14 10491.3,1067.84C10488.6,1070.54 10485.3,1071.89 10481.4,1071.89ZM10469.4,1170.49C10463.8,1170.49 10459.2,1168.73 10455.8,1165.21C10452.3,1161.69 10450.6,1156.41 10450.6,1149.37C10450.6,1146.43 10451,1142.62 10452,1137.92L10464,1081.4L10489.3,1081.4L10476.6,1141.27C10476.2,1143.03 10475.9,1144.9 10475.9,1146.9C10475.9,1149.25 10476.5,1150.92 10477.6,1151.92C10478.7,1152.92 10480.6,1153.41 10483.1,1153.41C10486.6,1153.41 10489.7,1151.98 10492.7,1149.1C10495.6,1146.23 10497.7,1142.5 10499,1137.92L10506.4,1137.92C10502,1150.6 10496.5,1159.2 10489.7,1163.71C10482.9,1168.24 10476.1,1170.49 10469.4,1170.49Z" style="fill:rgb(0,110,255);fill-rule:nonzero;"/>
                <path d="M10512.4,1074.88L10537.7,1074.88L10534.9,1088.09C10540.8,1083.04 10547.7,1080.52 10555.5,1080.52C10562.1,1080.52 10567.3,1082.69 10571.2,1087.03C10575.1,1091.38 10577,1098.48 10577,1108.34C10577,1117.61 10575.6,1126.97 10572.9,1136.42C10570.2,1145.87 10565.7,1153.91 10559.2,1160.55C10552.8,1167.18 10544.2,1170.49 10533.7,1170.49C10526.2,1170.49 10521.2,1168.38 10518.7,1164.16L10509.6,1207.12L10483,1213.46L10512.4,1074.88ZM10528.2,1155.18C10533.9,1155.18 10538.5,1152.54 10542.2,1147.25C10545.9,1141.97 10548.6,1135.66 10550.3,1128.32C10552,1120.99 10552.9,1114.15 10552.9,1107.81C10552.9,1098.07 10549.9,1093.2 10544.1,1093.2C10542,1093.2 10539.8,1093.96 10537.6,1095.49C10535.5,1097.01 10533.6,1099.12 10531.9,1101.83L10521.5,1151.13C10522.5,1153.83 10524.7,1155.18 10528.2,1155.18Z" style="fill:rgb(0,110,255);fill-rule:nonzero;"/>
            </g>
            <g transform="matrix(1.30574,0,0,1.30574,4407.94,-670.142)">
                <path d="M10269.7,1071.72C10265.9,1071.72 10262.6,1070.37 10259.9,1067.67C10257.2,1064.97 10255.8,1061.68 10255.8,1057.81C10255.8,1053.93 10257.2,1050.62 10259.9,1047.86C10262.6,1045.1 10265.9,1043.72 10269.7,1043.72C10273.6,1043.72 10276.9,1045.1 10279.7,1047.86C10282.5,1050.62 10283.8,1053.93 10283.8,1057.81C10283.8,1061.68 10282.5,1064.97 10279.7,1067.67C10276.9,1070.37 10273.6,1071.72 10269.7,1071.72ZM10225.9,1213.46C10220.3,1213.46 10215.6,1211.99 10211.8,1209.06C10208.1,1206.12 10206.2,1201.89 10206.2,1196.38C10206.2,1184.99 10215.8,1176.25 10235.1,1170.14L10253.9,1081.4L10279.3,1081.4L10261.8,1163.1C10267.5,1161.22 10272,1158.4 10275.4,1154.65C10278.8,1150.89 10281.7,1145.32 10284,1137.92L10291.4,1137.92C10288.2,1148.37 10283.9,1156.03 10278.5,1160.9C10273.1,1165.77 10267,1169.09 10260.2,1170.85L10257.6,1183.52C10255.2,1194.91 10251.2,1202.75 10245.4,1207.03C10239.7,1211.32 10233.2,1213.46 10225.9,1213.46ZM10221.9,1199.72C10223.8,1199.72 10225.8,1198.37 10227.7,1195.67C10229.5,1192.97 10231,1189.1 10232.1,1184.05L10233.1,1178.95C10221.6,1183.17 10215.9,1188.16 10215.9,1193.91C10215.9,1195.44 10216.4,1196.79 10217.5,1197.96C10218.5,1199.14 10220,1199.72 10221.9,1199.72Z" style="fill:rgb(81,0,255);fill-rule:nonzero;"/>
                <path d="M10311.5,1213.46C10305.8,1213.46 10301.1,1211.99 10297.4,1209.06C10293.6,1206.12 10291.8,1201.89 10291.8,1196.38C10291.8,1189.8 10294.5,1184.29 10300.1,1179.83C10305.7,1175.37 10312.5,1171.84 10320.6,1169.26L10322.6,1160.63C10319.2,1164.39 10315.7,1166.97 10312.2,1168.38C10308.7,1169.79 10305.1,1170.49 10301.4,1170.49C10295.8,1170.49 10291.3,1168.73 10287.8,1165.21C10284.3,1161.69 10282.6,1156.41 10282.6,1149.37C10282.6,1146.43 10283.1,1142.62 10284,1137.92L10296,1081.4L10321.3,1081.4L10308.7,1141.27C10308.3,1142.67 10308.1,1144.14 10308.1,1145.67C10308.1,1150.83 10309.9,1153.41 10313.4,1153.41C10316.5,1153.41 10319.2,1152.09 10321.5,1149.45C10323.9,1146.81 10325.7,1143.32 10327.1,1138.98L10339.5,1081.4L10364.8,1081.4L10347.6,1162.22C10353.4,1160.93 10359.3,1159.81 10365.2,1158.87L10383,1074.88L10408.3,1074.88L10405.5,1088.09C10411.4,1083.04 10418.2,1080.52 10426.1,1080.52C10432.7,1080.52 10437.9,1082.69 10441.8,1087.03C10445.6,1091.38 10447.6,1098.48 10447.6,1108.34C10447.6,1117.61 10446.2,1126.97 10443.5,1136.42C10440.8,1145.87 10436.3,1153.91 10429.8,1160.55C10423.3,1167.18 10414.8,1170.49 10404.3,1170.49C10398.4,1170.49 10393,1170.32 10388.1,1169.97L10380.1,1207.12L10353.6,1213.46L10362.9,1169.09C10357,1169.32 10351.3,1169.97 10345.8,1171.02L10343.2,1183.52C10340.8,1194.91 10336.8,1202.75 10331,1207.03C10325.3,1211.32 10318.8,1213.46 10311.5,1213.46ZM10391.1,1156.23C10392.8,1156.12 10395.4,1156.06 10398.8,1156.06C10404.4,1156.06 10409.1,1153.36 10412.8,1147.96C10416.5,1142.56 10419.2,1136.13 10420.9,1128.68C10422.6,1121.22 10423.5,1114.27 10423.5,1107.81C10423.5,1098.07 10420.5,1093.2 10414.7,1093.2C10412.5,1093.2 10410.4,1093.96 10408.2,1095.49C10406.1,1097.01 10404.1,1099.12 10402.5,1101.83L10391.1,1156.23ZM10307.4,1199.72C10309.4,1199.72 10311.4,1198.37 10313.2,1195.67C10315.1,1192.97 10316.6,1189.1 10317.6,1184.05L10318.7,1178.95C10307.2,1183.17 10301.4,1188.16 10301.4,1193.91C10301.4,1195.44 10302,1196.79 10303,1197.96C10304.1,1199.14 10305.5,1199.72 10307.4,1199.72Z" style="fill:rgb(81,0,255);fill-rule:nonzero;"/>
                <path d="M10481.4,1071.89C10477.5,1071.89 10474.2,1070.54 10471.5,1067.84C10468.8,1065.14 10467.5,1061.86 10467.5,1057.98C10467.5,1054.11 10468.8,1050.79 10471.5,1048.03C10474.2,1045.28 10477.5,1043.89 10481.4,1043.89C10485.3,1043.89 10488.6,1045.28 10491.3,1048.03C10494.1,1050.79 10495.5,1054.11 10495.5,1057.98C10495.5,1061.86 10494.1,1065.14 10491.3,1067.84C10488.6,1070.54 10485.3,1071.89 10481.4,1071.89ZM10469.4,1170.49C10463.8,1170.49 10459.2,1168.73 10455.8,1165.21C10452.3,1161.69 10450.6,1156.41 10450.6,1149.37C10450.6,1146.43 10451,1142.62 10452,1137.92L10464,1081.4L10489.3,1081.4L10476.6,1141.27C10476.2,1143.03 10475.9,1144.9 10475.9,1146.9C10475.9,1149.25 10476.5,1150.92 10477.6,1151.92C10478.7,1152.92 10480.6,1153.41 10483.1,1153.41C10486.6,1153.41 10489.7,1151.98 10492.7,1149.1C10495.6,1146.23 10497.7,1142.5 10499,1137.92L10506.4,1137.92C10502,1150.6 10496.5,1159.2 10489.7,1163.71C10482.9,1168.24 10476.1,1170.49 10469.4,1170.49Z" style="fill:rgb(81,0,255);fill-rule:nonzero;"/>
                <path d="M10512.4,1074.88L10537.7,1074.88L10534.9,1088.09C10540.8,1083.04 10547.7,1080.52 10555.5,1080.52C10562.1,1080.52 10567.3,1082.69 10571.2,1087.03C10575.1,1091.38 10577,1098.48 10577,1108.34C10577,1117.61 10575.6,1126.97 10572.9,1136.42C10570.2,1145.87 10565.7,1153.91 10559.2,1160.55C10552.8,1167.18 10544.2,1170.49 10533.7,1170.49C10526.2,1170.49 10521.2,1168.38 10518.7,1164.16L10509.6,1207.12L10483,1213.46L10512.4,1074.88ZM10528.2,1155.18C10533.9,1155.18 10538.5,1152.54 10542.2,1147.25C10545.9,1141.97 10548.6,1135.66 10550.3,1128.32C10552,1120.99 10552.9,1114.15 10552.9,1107.81C10552.9,1098.07 10549.9,1093.2 10544.1,1093.2C10542,1093.2 10539.8,1093.96 10537.6,1095.49C10535.5,1097.01 10533.6,1099.12 10531.9,1101.83L10521.5,1151.13C10522.5,1153.83 10524.7,1155.18 10528.2,1155.18Z" style="fill:rgb(81,0,255);fill-rule:nonzero;"/>
            </g>
        </g>
    </g>
</svg>
