<?xml version="1.0" encoding="UTF-8" standalone="no"?>
<!DOCTYPE svg PUBLIC "-//W3C//DTD SVG 1.1//EN" "http://www.w3.org/Graphics/SVG/1.1/DTD/svg11.dtd">
<svg width="100%" height="100%" viewBox="0 0 1059 1059" version="1.1" xmlns="http://www.w3.org/2000/svg" xmlns:xlink="http://www.w3.org/1999/xlink" xml:space="preserve" xmlns:serif="http://www.serif.com/" style="fill-rule:evenodd;clip-rule:evenodd;stroke-linejoin:round;stroke-miterlimit:2;">
    <g transform="matrix(1,0,0,1,-17447,0)">
        <g id="Artboard3" transform="matrix(1,0,0,1,-0.139395,0)">
            <rect x="17447.1" y="0" width="1058.99" height="1058.99" style="fill:rgb(237,235,235);"/>
            <g transform="matrix(1.30574,0,0,1.30574,4407.94,-1218.15)">
                <g transform="matrix(176.076,0,0,176.076,10284,1169.44)">
                    <path d="M0.156,0.25C0.124,0.25 0.097,0.242 0.076,0.225C0.055,0.208 0.044,0.184 0.044,0.153C0.044,0.116 0.06,0.084 0.092,0.059C0.123,0.034 0.162,0.014 0.208,-0.001L0.219,-0.05C0.2,-0.029 0.18,-0.014 0.16,-0.006C0.14,0.002 0.12,0.006 0.099,0.006C0.067,0.006 0.041,-0.004 0.021,-0.024C0.002,-0.044 -0.008,-0.074 -0.008,-0.114C-0.008,-0.131 -0.005,-0.152 0,-0.179L0.068,-0.5L0.212,-0.5L0.14,-0.16C0.138,-0.152 0.137,-0.144 0.137,-0.135C0.137,-0.106 0.147,-0.091 0.167,-0.091C0.184,-0.091 0.2,-0.099 0.213,-0.114C0.226,-0.129 0.237,-0.148 0.245,-0.173L0.315,-0.5L0.459,-0.5L0.361,-0.041C0.394,-0.048 0.428,-0.055 0.461,-0.06L0.562,-0.537L0.706,-0.537L0.69,-0.462C0.723,-0.491 0.762,-0.505 0.807,-0.505C0.844,-0.505 0.874,-0.493 0.896,-0.468C0.918,-0.443 0.929,-0.403 0.929,-0.347C0.929,-0.294 0.921,-0.241 0.906,-0.188C0.891,-0.134 0.865,-0.088 0.828,-0.051C0.791,-0.013 0.743,0.006 0.683,0.006C0.65,0.006 0.619,0.005 0.591,0.003L0.546,0.214L0.395,0.25L0.448,-0.002C0.415,-0.001 0.382,0.003 0.351,0.009L0.336,0.08C0.323,0.145 0.3,0.189 0.267,0.213C0.234,0.238 0.197,0.25 0.156,0.25ZM0.608,-0.075C0.618,-0.076 0.633,-0.076 0.652,-0.076C0.684,-0.076 0.711,-0.091 0.732,-0.122C0.752,-0.153 0.768,-0.189 0.778,-0.232C0.787,-0.274 0.792,-0.313 0.792,-0.35C0.792,-0.405 0.775,-0.433 0.742,-0.433C0.73,-0.433 0.718,-0.429 0.706,-0.42C0.693,-0.411 0.682,-0.399 0.673,-0.384L0.608,-0.075ZM0.133,0.172C0.144,0.172 0.155,0.164 0.166,0.149C0.177,0.134 0.185,0.112 0.191,0.083L0.197,0.054C0.132,0.078 0.099,0.106 0.099,0.139C0.099,0.148 0.102,0.155 0.108,0.162C0.114,0.169 0.122,0.172 0.133,0.172Z" style="fill:rgb(0,212,255);fill-rule:nonzero;"/>
                </g>
                <text x="10241.7px" y="1169.44px" style="font-family:'Lobster-Regular', 'Lobster';font-size:176.076px;fill:rgb(0,212,255);">j<tspan x="10452px " y="1169.44px ">i</tspan>p</text>
            </g>
            <g transform="matrix(1.30574,0,0,1.30574,4407.94,-944.146)">
                <g transform="matrix(176.076,0,0,176.076,10284,1169.44)">
                    <path d="M0.156,0.25C0.124,0.25 0.097,0.242 0.076,0.225C0.055,0.208 0.044,0.184 0.044,0.153C0.044,0.116 0.06,0.084 0.092,0.059C0.123,0.034 0.162,0.014 0.208,-0.001L0.219,-0.05C0.2,-0.029 0.18,-0.014 0.16,-0.006C0.14,0.002 0.12,0.006 0.099,0.006C0.067,0.006 0.041,-0.004 0.021,-0.024C0.002,-0.044 -0.008,-0.074 -0.008,-0.114C-0.008,-0.131 -0.005,-0.152 0,-0.179L0.068,-0.5L0.212,-0.5L0.14,-0.16C0.138,-0.152 0.137,-0.144 0.137,-0.135C0.137,-0.106 0.147,-0.091 0.167,-0.091C0.184,-0.091 0.2,-0.099 0.213,-0.114C0.226,-0.129 0.237,-0.148 0.245,-0.173L0.315,-0.5L0.459,-0.5L0.361,-0.041C0.394,-0.048 0.428,-0.055 0.461,-0.06L0.562,-0.537L0.706,-0.537L0.69,-0.462C0.723,-0.491 0.762,-0.505 0.807,-0.505C0.844,-0.505 0.874,-0.493 0.896,-0.468C0.918,-0.443 0.929,-0.403 0.929,-0.347C0.929,-0.294 0.921,-0.241 0.906,-0.188C0.891,-0.134 0.865,-0.088 0.828,-0.051C0.791,-0.013 0.743,0.006 0.683,0.006C0.65,0.006 0.619,0.005 0.591,0.003L0.546,0.214L0.395,0.25L0.448,-0.002C0.415,-0.001 0.382,0.003 0.351,0.009L0.336,0.08C0.323,0.145 0.3,0.189 0.267,0.213C0.234,0.238 0.197,0.25 0.156,0.25ZM0.608,-0.075C0.618,-0.076 0.633,-0.076 0.652,-0.076C0.684,-0.076 0.711,-0.091 0.732,-0.122C0.752,-0.153 0.768,-0.189 0.778,-0.232C0.787,-0.274 0.792,-0.313 0.792,-0.35C0.792,-0.405 0.775,-0.433 0.742,-0.433C0.73,-0.433 0.718,-0.429 0.706,-0.42C0.693,-0.411 0.682,-0.399 0.673,-0.384L0.608,-0.075ZM0.133,0.172C0.144,0.172 0.155,0.164 0.166,0.149C0.177,0.134 0.185,0.112 0.191,0.083L0.197,0.054C0.132,0.078 0.099,0.106 0.099,0.139C0.099,0.148 0.102,0.155 0.108,0.162C0.114,0.169 0.122,0.172 0.133,0.172Z" style="fill:rgb(0,110,255);fill-rule:nonzero;"/>
                </g>
                <text x="10241.7px" y="1169.44px" style="font-family:'Lobster-Regular', 'Lobster';font-size:176.076px;fill:rgb(0,110,255);">j<tspan x="10452px " y="1169.44px ">i</tspan>p</text>
            </g>
            <g transform="matrix(1.30574,0,0,1.30574,4407.94,-670.142)">
                <g transform="matrix(176.076,0,0,176.076,10284,1169.44)">
                    <path d="M0.156,0.25C0.124,0.25 0.097,0.242 0.076,0.225C0.055,0.208 0.044,0.184 0.044,0.153C0.044,0.116 0.06,0.084 0.092,0.059C0.123,0.034 0.162,0.014 0.208,-0.001L0.219,-0.05C0.2,-0.029 0.18,-0.014 0.16,-0.006C0.14,0.002 0.12,0.006 0.099,0.006C0.067,0.006 0.041,-0.004 0.021,-0.024C0.002,-0.044 -0.008,-0.074 -0.008,-0.114C-0.008,-0.131 -0.005,-0.152 0,-0.179L0.068,-0.5L0.212,-0.5L0.14,-0.16C0.138,-0.152 0.137,-0.144 0.137,-0.135C0.137,-0.106 0.147,-0.091 0.167,-0.091C0.184,-0.091 0.2,-0.099 0.213,-0.114C0.226,-0.129 0.237,-0.148 0.245,-0.173L0.315,-0.5L0.459,-0.5L0.361,-0.041C0.394,-0.048 0.428,-0.055 0.461,-0.06L0.562,-0.537L0.706,-0.537L0.69,-0.462C0.723,-0.491 0.762,-0.505 0.807,-0.505C0.844,-0.505 0.874,-0.493 0.896,-0.468C0.918,-0.443 0.929,-0.403 0.929,-0.347C0.929,-0.294 0.921,-0.241 0.906,-0.188C0.891,-0.134 0.865,-0.088 0.828,-0.051C0.791,-0.013 0.743,0.006 0.683,0.006C0.65,0.006 0.619,0.005 0.591,0.003L0.546,0.214L0.395,0.25L0.448,-0.002C0.415,-0.001 0.382,0.003 0.351,0.009L0.336,0.08C0.323,0.145 0.3,0.189 0.267,0.213C0.234,0.238 0.197,0.25 0.156,0.25ZM0.608,-0.075C0.618,-0.076 0.633,-0.076 0.652,-0.076C0.684,-0.076 0.711,-0.091 0.732,-0.122C0.752,-0.153 0.768,-0.189 0.778,-0.232C0.787,-0.274 0.792,-0.313 0.792,-0.35C0.792,-0.405 0.775,-0.433 0.742,-0.433C0.73,-0.433 0.718,-0.429 0.706,-0.42C0.693,-0.411 0.682,-0.399 0.673,-0.384L0.608,-0.075ZM0.133,0.172C0.144,0.172 0.155,0.164 0.166,0.149C0.177,0.134 0.185,0.112 0.191,0.083L0.197,0.054C0.132,0.078 0.099,0.106 0.099,0.139C0.099,0.148 0.102,0.155 0.108,0.162C0.114,0.169 0.122,0.172 0.133,0.172Z" style="fill:rgb(81,0,255);fill-rule:nonzero;"/>
                </g>
                <text x="10241.7px" y="1169.44px" style="font-family:'Lobster-Regular', 'Lobster';font-size:176.076px;fill:rgb(81,0,255);">j<tspan x="10452px " y="1169.44px ">i</tspan>p</text>
            </g>
        </g>
    </g>
</svg>
