<?xml version="1.0" encoding="UTF-8" standalone="no"?>
<!DOCTYPE svg PUBLIC "-//W3C//DTD SVG 1.1//EN" "http://www.w3.org/Graphics/SVG/1.1/DTD/svg11.dtd">
<svg width="100%" height="100%" viewBox="0 0 710 875" version="1.1" xmlns="http://www.w3.org/2000/svg" xmlns:xlink="http://www.w3.org/1999/xlink" xml:space="preserve" xmlns:serif="http://www.serif.com/" style="fill-rule:evenodd;clip-rule:evenodd;stroke-linejoin:round;stroke-miterlimit:2;">
    <g transform="matrix(1,0,0,1,0,-3588)">
        <g id="Artboard3" transform="matrix(1,0,0,1,0,-0.879992)">
            <rect x="0" y="3588.88" width="709.49" height="874.581" style="fill:none;"/>
            <g transform="matrix(1.48359,0,0,1.48359,-881.501,1764.15)">
                <g>
                    <g transform="matrix(1,0,0,1,-287.991,131.296)">
                        <circle cx="1117.42" cy="1312.01" r="138.04"/>
                    </g>
                    <g transform="matrix(5.49432,0,0,5.49432,788.218,1403.48)">
                        <path d="M7,2.5C7,2.226 7.226,2 7.5,2L14.5,2C14.774,2 15,2.226 15,2.5L15,3.5C15,3.774 14.774,4 14.5,4L7.5,4C7.226,4 7,3.774 7,3.5L7,2.5ZM2,1C0.903,1 -0,1.903 0,3L0,5C0,6.097 0.903,7 2,7L4,7C5.097,7 6,6.097 6,5L6,3C6,1.903 5.097,1 4,1L2,1ZM2,9C0.903,9 -0,9.903 0,11L0,13C0,14.097 0.903,15 2,15L4,15C5.097,15 6,14.097 6,13L6,11C6,9.903 5.097,9 4,9L2,9ZM2.854,5.354C2.76,5.448 2.633,5.501 2.5,5.501C2.367,5.501 2.24,5.448 2.146,5.354L1.146,4.354C1.052,4.26 0.999,4.133 0.999,4C0.999,3.725 1.225,3.499 1.5,3.499C1.633,3.499 1.76,3.552 1.854,3.646L2.5,4.293L4.146,2.646C4.24,2.552 4.367,2.499 4.5,2.499C4.775,2.499 5.001,2.725 5.001,3C5.001,3.133 4.948,3.26 4.854,3.354L2.854,5.354ZM2.854,13.354C2.76,13.448 2.633,13.501 2.5,13.501C2.367,13.501 2.24,13.448 2.146,13.354L1.146,12.354C1.052,12.26 0.999,12.133 0.999,12C0.999,11.725 1.225,11.499 1.5,11.499C1.633,11.499 1.76,11.552 1.854,11.646L2.5,12.293L4.146,10.646C4.24,10.552 4.367,10.499 4.5,10.499C4.775,10.499 5.001,10.725 5.001,11C5.001,11.133 4.948,11.26 4.854,11.354L2.854,13.354ZM7,10.5C7,10.226 7.226,10 7.5,10L14.5,10C14.774,10 15,10.226 15,10.5L15,11.5C15,11.774 14.774,12 14.5,12L7.5,12C7.226,12 7,11.774 7,11.5L7,10.5ZM7,5.5C7,5.226 7.226,5 7.5,5L12.5,5C12.774,5 13,5.226 13,5.5C13,5.774 12.774,6 12.5,6L7.5,6C7.226,6 7,5.774 7,5.5ZM7,13.5C7,13.226 7.226,13 7.5,13L12.5,13C12.774,13 13,13.226 13,13.5C13,13.774 12.774,14 12.5,14L7.5,14C7.226,14 7,13.774 7,13.5Z" style="fill:white;fill-rule:nonzero;"/>
                    </g>
                </g>
                <g transform="matrix(0.496535,0,0,0.496535,259.827,928.082)">
                    <text x="848.269px" y="1634.7px" style="font-family:'MalgunGothicBold', 'Malgun Gothic', sans-serif;font-weight:700;font-size:100.698px;">完成線上表單</text>
                </g>
                <g transform="matrix(0.496535,0,0,0.496535,318.58,862.424)">
                    <text x="848.269px" y="1634.7px" style="font-family:'SpaceMono-Bold', 'Space Mono', monospace;font-weight:700;font-size:100.698px;">STEP.1</text>
                </g>
            </g>
        </g>
    </g>
</svg>
