<?xml version="1.0" encoding="UTF-8" standalone="no"?>
<!DOCTYPE svg PUBLIC "-//W3C//DTD SVG 1.1//EN" "http://www.w3.org/Graphics/SVG/1.1/DTD/svg11.dtd">
<svg width="100%" height="100%" viewBox="0 0 710 875" version="1.1" xmlns="http://www.w3.org/2000/svg" xmlns:xlink="http://www.w3.org/1999/xlink" xml:space="preserve" xmlns:serif="http://www.serif.com/" style="fill-rule:evenodd;clip-rule:evenodd;stroke-linejoin:round;stroke-miterlimit:2;">
    <g transform="matrix(1,0,0,1,-2279.83,-3588)">
        <g id="Artboard3" transform="matrix(1,0,0,1,2279.83,-0.879992)">
            <rect x="0" y="3588.88" width="709.49" height="874.581" style="fill:none;"/>
            <g transform="matrix(1.48359,0,0,1.48359,-1605.22,1764.15)">
                <g transform="matrix(1,0,0,1,-117.647,-156.047)">
                    <g transform="matrix(1,0,0,1,321.727,287.343)">
                        <circle cx="1117.42" cy="1312.01" r="138.04"/>
                    </g>
                    <g transform="matrix(6.5007,0,0,6.5007,1386,1547.39)">
                        <path d="M8.97,4.97C9.109,4.837 9.295,4.763 9.487,4.763C9.899,4.763 10.237,5.102 10.237,5.513C10.237,5.701 10.167,5.882 10.04,6.02L6.05,11.01C5.908,11.163 5.709,11.25 5.5,11.25C5.302,11.25 5.111,11.171 4.97,11.03L2.324,8.384C2.172,8.242 2.085,8.043 2.085,7.835C2.085,7.424 2.424,7.085 2.835,7.085C3.043,7.085 3.242,7.172 3.384,7.324L5.478,9.417L8.95,4.992C8.956,4.984 8.963,4.977 8.97,4.97ZM8.05,10.11L8.97,11.03C9.111,11.17 9.301,11.249 9.5,11.249C9.708,11.249 9.907,11.162 10.049,11.01L14.041,6.02C14.184,5.879 14.264,5.687 14.264,5.486C14.264,5.075 13.926,4.736 13.514,4.736C13.298,4.736 13.092,4.83 12.95,4.992L9.477,9.417L8.992,8.931L8.049,10.11L8.05,10.11Z" style="fill:white;fill-rule:nonzero;"/>
                    </g>
                </g>
                <g transform="matrix(0.737221,0,0,0.737221,520.878,535.487)">
                    <text x="848.269px" y="1634.7px" style="font-family:'MalgunGothicBold', 'Malgun Gothic', sans-serif;font-weight:700;font-size:67.822px;">確認圖面及報價</text>
                </g>
                <g transform="matrix(0.737221,0,0,0.737221,604.66,468.974)">
                    <text x="848.269px" y="1634.7px" style="font-family:'SpaceMono-Bold', 'Space Mono', monospace;font-weight:700;font-size:67.822px;">STEP.4</text>
                </g>
            </g>
        </g>
    </g>
</svg>
