<?xml version="1.0" encoding="UTF-8" standalone="no"?>
<!DOCTYPE svg PUBLIC "-//W3C//DTD SVG 1.1//EN" "http://www.w3.org/Graphics/SVG/1.1/DTD/svg11.dtd">
<svg width="100%" height="100%" viewBox="0 0 2936 921" version="1.1" xmlns="http://www.w3.org/2000/svg" xmlns:xlink="http://www.w3.org/1999/xlink" xml:space="preserve" xmlns:serif="http://www.serif.com/" style="fill-rule:evenodd;clip-rule:evenodd;stroke-linejoin:round;stroke-miterlimit:2;">
    <g transform="matrix(1,0,0,1,0,-2610)">
        <g id="Artboard2" transform="matrix(1,0,0,1,0,-0.825417)">
            <rect x="0" y="2610.83" width="2935.17" height="920.267" style="fill:none;"/>
            <g transform="matrix(1.48359,0,0,1.48359,-916.512,861.664)">
                <g transform="matrix(1,0,0,1,23.5988,-64.6948)">
                    <g>
                        <g transform="matrix(1,0,0,1,-287.991,131.296)">
                            <circle cx="1117.42" cy="1312.01" r="138.04"/>
                        </g>
                        <g transform="matrix(5.49432,0,0,5.49432,788.218,1403.48)">
                            <path d="M7,2.5C7,2.226 7.226,2 7.5,2L14.5,2C14.774,2 15,2.226 15,2.5L15,3.5C15,3.774 14.774,4 14.5,4L7.5,4C7.226,4 7,3.774 7,3.5L7,2.5ZM2,1C0.903,1 -0,1.903 0,3L0,5C0,6.097 0.903,7 2,7L4,7C5.097,7 6,6.097 6,5L6,3C6,1.903 5.097,1 4,1L2,1ZM2,9C0.903,9 -0,9.903 0,11L0,13C0,14.097 0.903,15 2,15L4,15C5.097,15 6,14.097 6,13L6,11C6,9.903 5.097,9 4,9L2,9ZM2.854,5.354C2.76,5.448 2.633,5.501 2.5,5.501C2.367,5.501 2.24,5.448 2.146,5.354L1.146,4.354C1.052,4.26 0.999,4.133 0.999,4C0.999,3.725 1.225,3.499 1.5,3.499C1.633,3.499 1.76,3.552 1.854,3.646L2.5,4.293L4.146,2.646C4.24,2.552 4.367,2.499 4.5,2.499C4.775,2.499 5.001,2.725 5.001,3C5.001,3.133 4.948,3.26 4.854,3.354L2.854,5.354ZM2.854,13.354C2.76,13.448 2.633,13.501 2.5,13.501C2.367,13.501 2.24,13.448 2.146,13.354L1.146,12.354C1.052,12.26 0.999,12.133 0.999,12C0.999,11.725 1.225,11.499 1.5,11.499C1.633,11.499 1.76,11.552 1.854,11.646L2.5,12.293L4.146,10.646C4.24,10.552 4.367,10.499 4.5,10.499C4.775,10.499 5.001,10.725 5.001,11C5.001,11.133 4.948,11.26 4.854,11.354L2.854,13.354ZM7,10.5C7,10.226 7.226,10 7.5,10L14.5,10C14.774,10 15,10.226 15,10.5L15,11.5C15,11.774 14.774,12 14.5,12L7.5,12C7.226,12 7,11.774 7,11.5L7,10.5ZM7,5.5C7,5.226 7.226,5 7.5,5L12.5,5C12.774,5 13,5.226 13,5.5C13,5.774 12.774,6 12.5,6L7.5,6C7.226,6 7,5.774 7,5.5ZM7,13.5C7,13.226 7.226,13 7.5,13L12.5,13C12.774,13 13,13.226 13,13.5C13,13.774 12.774,14 12.5,14L7.5,14C7.226,14 7,13.774 7,13.5Z" style="fill:white;fill-rule:nonzero;"/>
                        </g>
                    </g>
                    <g transform="matrix(0.496535,0,0,0.496535,259.827,928.082)">
                        <text x="848.269px" y="1634.7px" style="font-family:'MalgunGothicBold', 'Malgun Gothic', sans-serif;font-weight:700;font-size:100.698px;">完成線上表單</text>
                    </g>
                    <g transform="matrix(0.496535,0,0,0.496535,318.58,862.424)">
                        <text x="848.269px" y="1634.7px" style="font-family:'SpaceMono-Bold', 'Space Mono', monospace;font-weight:700;font-size:100.698px;">STEP.1</text>
                    </g>
                </g>
                <g transform="matrix(1,0,0,1,25.0017,-65.1098)">
                    <g transform="matrix(1,0,0,1,-117.647,-156.047)">
                        <g transform="matrix(1,0,0,1,321.727,287.343)">
                            <circle cx="1117.42" cy="1312.01" r="138.04"/>
                        </g>
                        <g transform="matrix(4.80723,0,0,4.80723,1400.68,1565.02)">
                            <path d="M1.885,0.511C2.212,0.184 2.656,0.001 3.118,0.001C3.656,0.001 4.165,0.25 4.495,0.674L6.29,2.98C6.619,3.403 6.735,3.954 6.605,4.474L6.058,6.664C6.001,6.894 6.068,7.139 6.236,7.307L8.693,9.764C8.861,9.932 9.106,10 9.337,9.942L11.526,9.395C12.046,9.265 12.597,9.381 13.02,9.71L15.326,11.504C16.155,12.149 16.231,13.374 15.489,14.115L14.455,15.149C13.715,15.889 12.609,16.214 11.578,15.851C8.939,14.923 6.543,13.412 4.568,11.431C2.587,9.456 1.077,7.06 0.148,4.422C-0.214,3.392 0.111,2.285 0.851,1.545L1.885,0.511ZM15.854,0.146C15.948,0.24 16.001,0.367 16.001,0.5C16.001,0.633 15.948,0.76 15.854,0.854L11.707,5L14.5,5C14.774,5 15,5.226 15,5.5C15,5.774 14.774,6 14.5,6L10.5,6C10.226,6 10,5.774 10,5.5L10,1.5C10,1.226 10.226,1 10.5,1C10.774,1 11,1.226 11,1.5L11,4.293L15.146,0.146C15.24,0.052 15.367,-0.001 15.5,-0.001C15.633,-0.001 15.76,0.052 15.854,0.146Z" style="fill:white;"/>
                        </g>
                    </g>
                    <g transform="matrix(0.737221,0,0,0.737221,545.829,534.437)">
                        <text x="848.269px" y="1634.7px" style="font-family:'MalgunGothicBold', 'Malgun Gothic', sans-serif;font-weight:700;font-size:67.822px;">等待專員聯絡</text>
                    </g>
                    <g transform="matrix(0.737221,0,0,0.737221,604.66,468.974)">
                        <text x="848.269px" y="1634.7px" style="font-family:'SpaceMono-Bold', 'Space Mono', monospace;font-weight:700;font-size:67.822px;">STEP.2</text>
                    </g>
                </g>
                <g transform="matrix(1,0,0,1,1011.62,-65.1098)">
                    <g transform="matrix(1,0,0,1,-117.647,-156.047)">
                        <g transform="matrix(1,0,0,1,321.727,287.343)">
                            <circle cx="1117.42" cy="1312.01" r="138.04"/>
                        </g>
                        <g transform="matrix(6.5007,0,0,6.5007,1386,1547.39)">
                            <path d="M8.97,4.97C9.109,4.837 9.295,4.763 9.487,4.763C9.899,4.763 10.237,5.102 10.237,5.513C10.237,5.701 10.167,5.882 10.04,6.02L6.05,11.01C5.908,11.163 5.709,11.25 5.5,11.25C5.302,11.25 5.111,11.171 4.97,11.03L2.324,8.384C2.172,8.242 2.085,8.043 2.085,7.835C2.085,7.424 2.424,7.085 2.835,7.085C3.043,7.085 3.242,7.172 3.384,7.324L5.478,9.417L8.95,4.992C8.956,4.984 8.963,4.977 8.97,4.97ZM8.05,10.11L8.97,11.03C9.111,11.17 9.301,11.249 9.5,11.249C9.708,11.249 9.907,11.162 10.049,11.01L14.041,6.02C14.184,5.879 14.264,5.687 14.264,5.486C14.264,5.075 13.926,4.736 13.514,4.736C13.298,4.736 13.092,4.83 12.95,4.992L9.477,9.417L8.992,8.931L8.049,10.11L8.05,10.11Z" style="fill:white;fill-rule:nonzero;"/>
                        </g>
                    </g>
                    <g transform="matrix(0.737221,0,0,0.737221,520.878,535.487)">
                        <text x="848.269px" y="1634.7px" style="font-family:'MalgunGothicBold', 'Malgun Gothic', sans-serif;font-weight:700;font-size:67.822px;">確認圖面及報價</text>
                    </g>
                    <g transform="matrix(0.737221,0,0,0.737221,604.66,468.974)">
                        <text x="848.269px" y="1634.7px" style="font-family:'SpaceMono-Bold', 'Space Mono', monospace;font-weight:700;font-size:67.822px;">STEP.4</text>
                    </g>
                </g>
                <g transform="matrix(1,0,0,1,23.5988,-64.6948)">
                    <g transform="matrix(1,0,0,1,152.444,-220.953)">
                        <g transform="matrix(1,0,0,1,543.707,352.249)">
                            <circle cx="1117.42" cy="1312.01" r="138.04"/>
                        </g>
                        <g transform="matrix(5.49445,0,0,5.49445,1617.17,1621.68)">
                            <path d="M8,0C8.213,-0 8.404,0.136 8.473,0.337L9.046,2L14,2C14.549,2 15,2.451 15,3L15,10C15,10.549 14.549,11 14,11L12.15,11L13.473,14.837C13.491,14.889 13.5,14.945 13.5,15C13.5,15.274 13.274,15.5 13,15.5C12.787,15.5 12.596,15.364 12.527,15.163L11.092,11L8.5,11L8.5,14C8.5,14.274 8.274,14.5 8,14.5C7.726,14.5 7.5,14.274 7.5,14L7.5,11L4.908,11L3.473,15.163C3.404,15.364 3.213,15.5 3,15.5C2.726,15.5 2.5,15.274 2.5,15C2.5,14.945 2.509,14.889 2.527,14.837L3.85,11L2,11C1.451,11 1,10.549 1,10L1,3C1,2.451 1.451,2 2,2L6.954,2L7.527,0.337C7.596,0.136 7.787,-0 8,0ZM2,3L2,10L14,10L14,3L2,3Z" style="fill:white;fill-rule:nonzero;"/>
                        </g>
                    </g>
                    <g transform="matrix(0.737221,0,0,0.737221,1035.73,534.169)">
                        <text x="855.865px" y="1634.7px" style="font-family:'MalgunGothicBold', 'Malgun Gothic', sans-serif;font-weight:700;font-size:67.822px;">公司內部討論</text>
                        <text x="854.509px" y="1713.83px" style="font-family:'MalgunGothicBold', 'Malgun Gothic', sans-serif;font-weight:700;font-size:45.215px;">約</text>
                        <text x="899.724px" y="1713.83px" style="font-family:'SpaceMono-Bold', 'Space Mono', monospace;font-weight:700;font-size:45.215px;">3~5</text>
                        <text x="982.738px" y="1713.83px" style="font-family:'MalgunGothicBold', 'Malgun Gothic', sans-serif;font-weight:700;font-size:45.215px;">天</text>
                        <text x="1027.95px" y="1713.83px" style="font-family:'SpaceMono-Bold', 'Space Mono', monospace;font-weight:700;font-size:45.215px;">(</text>
                        <text x="1055.62px" y="1713.83px" style="font-family:'MalgunGothicBold', 'Malgun Gothic', sans-serif;font-weight:700;font-size:45.215px;">急件除外</text>
                        <text x="1236.48px" y="1713.83px" style="font-family:'SpaceMono-Bold', 'Space Mono', monospace;font-weight:700;font-size:45.215px;">)</text>
                    </g>
                    <g transform="matrix(0.737221,0,0,0.737221,1096.91,468.974)">
                        <text x="848.269px" y="1634.7px" style="font-family:'SpaceMono-Bold', 'Space Mono', monospace;font-weight:700;font-size:67.822px;">STEP.3</text>
                    </g>
                </g>
            </g>
        </g>
    </g>
</svg>
