<?xml version="1.0" encoding="UTF-8" standalone="no"?>
<!DOCTYPE svg PUBLIC "-//W3C//DTD SVG 1.1//EN" "http://www.w3.org/Graphics/SVG/1.1/DTD/svg11.dtd">
<svg width="100%" height="100%" viewBox="0 0 4413 2034" version="1.1" xmlns="http://www.w3.org/2000/svg" xmlns:xlink="http://www.w3.org/1999/xlink" xml:space="preserve" xmlns:serif="http://www.serif.com/" style="fill-rule:evenodd;clip-rule:evenodd;stroke-linecap:round;stroke-linejoin:round;stroke-miterlimit:1.5;">
    <g transform="matrix(1,0,0,1,-4698.96,-5293.07)">
        <g id="Artboard4" transform="matrix(4.16667,0,0,4.16667,4698.96,5293.07)">
            <rect x="0" y="0" width="1059" height="488" style="fill:none;"/>
            <g transform="matrix(1,0,0,1,1.37397,-2.27374e-13)">
                <g transform="matrix(0.274874,0,0,0.24,-1298.98,-1292.5)">
                    <path d="M6991.79,5985.78L7264.28,5985.78C7323.03,5985.78 7379.36,6012.5 7420.9,6060.08C7462.43,6107.65 7485.77,6172.17 7485.77,6239.44L7485.77,6239.45C7485.77,6379.54 7386.61,6493.11 7264.28,6493.11C6941.59,6493.11 6347.29,6493.11 6040.17,6493.11C5932.39,6493.11 5845.02,6593.18 5845.02,6716.62L5845.02,6716.62C5845.02,6840.06 5932.39,6940.12 6040.17,6940.12L7512.85,6940.12" style="fill:none;stroke:rgb(52,52,52);stroke-width:112.39px;"/>
                </g>
                <g transform="matrix(0.24,0,0,0.24,-1127.75,-1270.34)">
                    <path d="M7351.31,5792.11L7351.31,5771.7L7331.26,5771.7L7331.26,5792.11L7307.78,5792.11L7307.78,5771.7L7287.73,5771.7L7287.73,5792.11L7264.24,5792.11L7264.24,5771.7L7244.19,5771.7L7244.19,5792.11L7220.71,5792.11L7220.71,5771.7L7200.66,5771.7L7200.66,5792.11L7177.18,5792.11L7177.18,5771.7L7157.13,5771.7L7157.13,5792.11L7133.65,5792.11L7133.65,5771.7L7113.6,5771.7L7113.6,5792.11L7090.12,5792.11L7090.12,5771.7L7070.07,5771.7L7070.07,5792.11L7046.59,5792.11L7046.59,5771.7L7026.53,5771.7L7026.53,5792.11L7003.06,5792.11L7003.06,5771.7L6983,5771.7L6983,5792.11L6959.52,5792.11L6959.52,5771.7L6939.47,5771.7L6939.47,5792.11L6915.99,5792.11L6915.99,5771.7L6895.94,5771.7L6895.94,5792.11L6872.46,5792.11L6872.46,5771.7L6852.41,5771.7L6852.41,5792.11L6828.93,5792.11L6828.93,5771.7L6808.88,5771.7L6808.88,5792.11L6785.4,5792.11L6785.4,5771.7L6765.35,5771.7L6765.35,5792.11L6741.86,5792.11L6741.86,5771.7L6721.81,5771.7L6721.81,5792.11L6698.33,5792.11L6698.33,5771.7L6678.28,5771.7L6678.28,5792.11L6654.8,5792.11L6654.8,5771.7L6634.75,5771.7L6634.75,5792.11L6611.27,5792.11L6611.27,5771.7L6591.22,5771.7L6591.22,5792.11L6567.74,5792.11L6567.74,5771.7L6547.69,5771.7L6547.69,5792.11L6529,5792.11L6529,5994.77L6547.69,5994.77L6547.69,6015.19L6567.74,6015.19L6567.74,5994.77L6591.22,5994.77L6591.22,6015.19L6611.27,6015.19L6611.27,5994.77L6634.75,5994.77L6634.75,6015.19L6654.8,6015.19L6654.8,5994.77L6678.28,5994.77L6678.28,6015.19L6698.33,6015.19L6698.33,5994.77L6721.81,5994.77L6721.81,6015.19L6741.86,6015.19L6741.86,5994.77L6765.35,5994.77L6765.35,6015.19L6785.4,6015.19L6785.4,5994.77L6808.88,5994.77L6808.88,6015.19L6828.93,6015.19L6828.93,5994.77L6852.41,5994.77L6852.41,6015.19L6872.46,6015.19L6872.46,5994.77L6895.94,5994.77L6895.94,6015.19L6915.99,6015.19L6915.99,5994.77L6939.47,5994.77L6939.47,6015.19L6959.52,6015.19L6959.52,5994.77L6983,5994.77L6983,6015.19L7003.06,6015.19L7003.06,5994.77L7026.53,5994.77L7026.53,6015.19L7046.59,6015.19L7046.59,5994.77L7070.07,5994.77L7070.07,6015.19L7090.12,6015.19L7090.12,5994.77L7113.6,5994.77L7113.6,6015.19L7133.65,6015.19L7133.65,5994.77L7157.13,5994.77L7157.13,6015.19L7177.18,6015.19L7177.18,5994.77L7200.66,5994.77L7200.66,6015.19L7220.71,6015.19L7220.71,5994.77L7244.19,5994.77L7244.19,6015.19L7264.24,6015.19L7264.24,5994.77L7287.73,5994.77L7287.73,6015.19L7307.78,6015.19L7307.78,5994.77L7331.26,5994.77L7331.26,6015.19L7351.31,6015.19L7351.31,5994.77L7370,5994.77L7370,5792.11L7351.31,5792.11Z" style="fill:rgb(29,29,29);"/>
                </g>
                <g transform="matrix(0.443423,0,0,0.443423,-2503.79,-2592.05)">
                    <path d="M6462.67,6139.93L6621.11,6139.93L6633.45,6127.59L6636.99,6126.72L6636.99,6214.27L6633.45,6213.39L6621.11,6201.06L6462.67,6201.06L6462.67,6139.93ZM6389.07,6201.06L6378.51,6201.06L6368.16,6190.71L6352.01,6190.71L6341.16,6201.56L6326.1,6201.56L6300.83,6176.3L6300.83,6164.69L6326.1,6139.42L6341.16,6139.42L6352.01,6150.27L6368.16,6150.27L6378.51,6139.93L6389.07,6139.93L6389.07,6201.06ZM6398.6,6201.06L6398.6,6139.93L6453.15,6139.93L6453.15,6201.06L6398.6,6201.06Z" style="fill:rgb(192,192,192);"/>
                </g>
            </g>
        </g>
    </g>
</svg>
