<?xml version="1.0" encoding="UTF-8" standalone="no"?>
<!DOCTYPE svg PUBLIC "-//W3C//DTD SVG 1.1//EN" "http://www.w3.org/Graphics/SVG/1.1/DTD/svg11.dtd">
<svg width="100%" height="100%" viewBox="0 0 1594 1409" version="1.1" xmlns="http://www.w3.org/2000/svg" xmlns:xlink="http://www.w3.org/1999/xlink" xml:space="preserve" xmlns:serif="http://www.serif.com/" style="fill-rule:evenodd;clip-rule:evenodd;stroke-linejoin:round;stroke-miterlimit:2;">
    <g transform="matrix(1,0,0,1,-14072.8,0)">
        <g id="Artboard2" transform="matrix(1.13144,0,0,1,-118.905,0)">
            <rect x="12543" y="0" width="1408.69" height="1408.69" style="fill:white;"/>
            <g transform="matrix(0.438397,0,0,0.496021,8120.53,-346.554)">
                <text x="10241.7px" y="1169.44px" style="font-family:'SpaceMono-Regular', 'Space Mono', monospace;font-size:176.076px;">Charlene × JYPOP Fox School</text>
            </g>
            <g transform="matrix(0.357649,0,0,0.40466,8947.88,-114.515)">
                <text x="10241.7px" y="1169.44px" style="font-family:'SpaceMono-Regular', 'Space Mono', monospace;font-size:176.076px;">NT$‌1,250</text>
            </g>
            <g transform="matrix(0.357649,0,0,0.40466,8949.64,91.017)">
                <text x="10241.7px" y="1169.44px" style="font-family:'SpaceMono-Regular', 'Space Mono', monospace;font-size:176.076px;">Size:</text>
            </g>
            <g transform="matrix(0.883826,0,0,1,3508.19,-958.733)">
                <rect x="10304.3" y="1601.7" width="392.846" height="94.342"/>
            </g>
            <g transform="matrix(0.883826,0,0,1,3912.18,-958.733)">
                <rect x="10304.3" y="1601.7" width="392.846" height="94.342"/>
            </g>
            <g transform="matrix(0.883826,0,0,1,4316.17,-958.733)">
                <rect x="10304.3" y="1601.7" width="392.846" height="94.342"/>
            </g>
            <g transform="matrix(0.357649,0,0,0.40466,9030.67,241.852)">
                <text x="10241.7px" y="1169.44px" style="font-family:'SpaceMono-Regular', 'Space Mono', monospace;font-size:176.076px;fill:white;">SMALL</text>
            </g>
            <g transform="matrix(0.357649,0,0,0.40466,9414.45,241.852)">
                <text x="10241.7px" y="1169.44px" style="font-family:'SpaceMono-Regular', 'Space Mono', monospace;font-size:176.076px;fill:white;">MEDIUM</text>
            </g>
            <g transform="matrix(0.357649,0,0,0.40466,9837.74,241.852)">
                <text x="10241.7px" y="1169.44px" style="font-family:'SpaceMono-Regular', 'Space Mono', monospace;font-size:176.076px;fill:white;">LARGE</text>
            </g>
            <g transform="matrix(0.478772,0,0,0.655579,7657.07,-344.348)">
                <text x="10353.2px" y="1925.44px" style="font-family:'SpaceMono-Regular', 'Space Mono', monospace;font-size:71.251px;">Now this</text>
                <text x="10353.2px" y="2004.31px" style="font-family:'SpaceMono-Regular', 'Space Mono', monospace;font-size:71.251px;">Is hells waiting room</text>
                <text x="10353.2px" y="2083.19px" style="font-family:'SpaceMono-Regular', 'Space Mono', monospace;font-size:71.251px;">Dont bring your sexys with you</text>
                <text x="10353.2px" y="2162.07px" style="font-family:'SpaceMono-Regular', 'Space Mono', monospace;font-size:71.251px;">They might get snatched up</text>
                <text x="10353.2px" y="2240.95px" style="font-family:'SpaceMono-Regular', 'Space Mono', monospace;font-size:71.251px;">Litte panty robber nerm</text>
                <text x="10353.2px" y="2319.83px" style="font-family:'SpaceMono-Regular', 'Space Mono', monospace;font-size:71.251px;">100% Cotton Long Sleeve Tee</text>
                <text x="10353.2px" y="2398.7px" style="font-family:'SpaceMono-Regular', 'Space Mono', monospace;font-size:71.251px;">Screen Printed Front, Back, And Sleeve Fireworld Graphics</text>
            </g>
        </g>
    </g>
</svg>
