<?xml version="1.0" encoding="UTF-8" standalone="no"?>
<!DOCTYPE svg PUBLIC "-//W3C//DTD SVG 1.1//EN" "http://www.w3.org/Graphics/SVG/1.1/DTD/svg11.dtd">
<svg width="100%" height="100%" viewBox="0 0 520 520" version="1.1" xmlns="http://www.w3.org/2000/svg" xmlns:xlink="http://www.w3.org/1999/xlink" xml:space="preserve" xmlns:serif="http://www.serif.com/" style="fill-rule:evenodd;clip-rule:evenodd;stroke-linejoin:round;stroke-miterlimit:2;">
    <g transform="matrix(1,0,0,1,-2989,-2610)">
        <g id="Artboard4" transform="matrix(1,0,0,1,-0.322851,0)">
            <rect x="2989.32" y="2610" width="519.312" height="519.312" style="fill:none;"/>
            <g transform="matrix(1,0,0,1,132.878,-44.4717)">
                <text x="3012.14px" y="3032.36px" style="font-family:'SpaceMono-Regular', 'Space Mono', monospace;font-size:48.343px;">Loading</text>
            </g>
            <g transform="matrix(0.106959,0,0,0.106959,3062.07,2643.16)">
                <path d="M2568.2,921.804C2570.85,921.804 2573.39,922.857 2575.27,924.733C2577.14,926.608 2578.2,929.152 2578.2,931.804L2578.2,1750C2578.2,2207.09 2207.09,2578.2 1750,2578.2C1292.91,2578.2 921.804,2207.09 921.804,1750C921.804,1292.91 1292.91,921.804 1750,921.804L2568.2,921.804Z" style="fill:rgb(255,105,0);"/>
            </g>
        </g>
    </g>
</svg>
