<?xml version="1.0" encoding="UTF-8" standalone="no"?>
<!DOCTYPE svg PUBLIC "-//W3C//DTD SVG 1.1//EN" "http://www.w3.org/Graphics/SVG/1.1/DTD/svg11.dtd">
<svg width="100%" height="100%" viewBox="0 0 4413 2034" version="1.1" xmlns="http://www.w3.org/2000/svg" xmlns:xlink="http://www.w3.org/1999/xlink" xml:space="preserve" xmlns:serif="http://www.serif.com/" style="fill-rule:evenodd;clip-rule:evenodd;stroke-linejoin:round;stroke-miterlimit:2;">
    <g transform="matrix(1,0,0,1,0,-3123.76)">
        <g id="Artboard4" transform="matrix(4.16667,0,0,4.16667,0,3123.76)">
            <rect x="0" y="0" width="1059" height="488" style="fill:none;"/>
            <g transform="matrix(0.130298,0,0,0.184279,300.965,15.465)">
                <g transform="matrix(2.97,0,0,2.1,-187.727,-182.259)">
                    <path d="M968.145,520.148C968.145,433.391 897.709,362.955 810.952,362.955L496.566,362.955C409.809,362.955 339.373,433.391 339.373,520.148L339.373,834.534C339.373,921.291 409.809,991.727 496.566,991.727L810.952,991.727C897.709,991.727 968.145,921.291 968.145,834.534L968.145,520.148Z" style="fill:rgb(52,52,52);"/>
                </g>
                <g transform="matrix(2.97,0,0,2.1,128.301,-74.697)">
                    <text x="498.16px" y="904.937px" style="font-family:'DINCondensed-Bold', 'DIN Condensed';font-weight:700;font-stretch:condensed;font-size:73.094px;fill:rgb(82,82,82);">SL-I</text>
                </g>
            </g>
        </g>
    </g>
</svg>
